<svg style="display: none;" aria-hidden="true" xmlns="http://www.w3.org/2000/svg" xmlns:xlink="http://www.w3.org/1999/xlink"><symbol viewBox="0 0 13 7" id="svg-arrow"><path d="M.15.85l6 6c.2.2.5.2.7 0l6-6a.5.5 0 0 0-.7-.7L6.5 5.8.85.15a.5.5 0 0 0-.7.7z"/></symbol><symbol viewBox="0 0 17 20" id="svg-bag"><path d="M3.6 4H1.1C.5 4 0 4.5 0 5.1v13.8c0 .6.5 1.1 1.1 1.1h14.8c.6 0 1.1-.5 1.1-1.1V5.1c0-.6-.5-1.1-1.1-1.1h-2.5a5 5 0 0 0-9.8 0zm7.73 0H5.67a3 3 0 0 1 5.66 0zM2 6h13v12H2z"/></symbol><symbol viewBox="0 0 14 10" id="svg-check"><path d="M12.3.28L4.75 7.6 1.7 4.65A1 1 0 0 0 .3 6.08l3.75 3.64c.4.37 1 .37 1.4 0l8.25-8c.9-1.02-.45-2.3-1.4-1.44z"/></symbol><symbol viewBox="0 0 20 20" id="svg-close"><path d="M.32 1.73L8.6 10 .32 18.27c-.96.96.45 2.37 1.4 1.4L10 11.4l8.27 8.28c.96.96 2.37-.45 1.4-1.4L11.4 10l8.28-8.27c.96-.96-.45-2.37-1.4-1.4L10 8.6 1.73.32C.77-.64-.64.77.32 1.73z"/></symbol><symbol viewBox="0 0 20 20" id="svg-login"><path d="M10 0a5 5 0 0 0-5 5 5 5 0 0 0 5 5 5 5 0 0 0 5-5 5 5 0 0 0-5-5zm0 2c1.67 0 3 1.33 3 3s-1.33 3-3 3-3-1.33-3-3 1.33-3 3-3zM7 12a7 7 0 0 0-7 7c0 1.33 2 1.33 2 0 0-2.8 2.2-5 5-5h6c2.8 0 5 2.2 5 5 0 1.33 2 1.33 2 0a7 7 0 0 0-7-7H7z"/></symbol><symbol viewBox="0 0 128 28" id="svg-logo"><path d="M75.18 0c-3.82.02-7.83 8.2-10.82 8.48-3.24.3-6.16-6.53-9.98-6.83-5.72-.46-8.93 6.8-15.27 8.05-9 1.78-17.17-4.77-18.05-3.98s9.86 8 19.54 5.87c6.36-1.4 8.96-7.5 12.9-7.45 3.8.04 5.55 7.1 11.06 6.93 4.65-.14 7.4-8.53 11.35-8.57 4.78-.05 12.33 11.38 20.15 11.44 6.43.05 5.7-7.74 13.1-6.84 14.08 1.7 17.83 9.9 18.8 8.86S120.14 4.87 107.23 5c-6.72.07-6.6 5.95-10.6 6.22C88.56 11.78 83.4-.04 75.18 0zM24.4 16.33a2.99 2.97 0 0 0-.14 0c-1.1 0-1.93.4-2.5 1.24v-1.24H15.7v.57h2.72v10.5H15.7V28h8.73v-.57h-2.66v-8a2.4 2.4 0 0 1 .7-1.78c.47-.48 1.07-.72 1.8-.72.9 0 1.57.32 2.02.95a1.4 1.38 0 0 0-.81-.12c-.27.05-.52.15-.75.3-.22.14-.38.33-.52.57-.13.22-.2.5-.2.8a1.61 1.6 0 0 0 .49 1.18 1.61 1.6 0 0 0 1.19.48l-.01.01a1.61 1.6 0 0 0 1.19-.48 1.61 1.6 0 0 0 .49-1.18c0-.9-.3-1.63-.87-2.2a2.99 2.97 0 0 0-2.08-.86zm-18.5 0a5.88 5.84 0 0 0-2.31.46 5.98 5.94 0 0 0-1.87 1.27A6 6 0 0 0 .46 19.9 5.69 5.65 0 0 0 0 22.16a5.69 5.65 0 0 0 .46 2.26 6.26 6.21 0 0 0 1.26 1.87 6.26 6.21 0 0 0 1.87 1.24 5.9 5.86 0 0 0 2.31.46 5.78 5.74 0 0 0 2.51-.57V28h6.12v-.57H11.8V16.34H8.4v.57a5.78 5.74 0 0 0-2.51-.57zm29.2 0a5.69 5.65 0 0 0-2.29.46 5.98 5.94 0 0 0-1.87 1.27 5.88 5.84 0 0 0-1.25 1.84 5.68 5.64 0 0 0-.46 2.27c0 .78.16 1.54.46 2.23a6.73 6.68 0 0 0 1.28 1.86 6.73 6.68 0 0 0 1.88 1.27 5.62 5.58 0 0 0 2.25.46l.01.01a5.48 5.44 0 0 0 2.25-.46 5.98 5.94 0 0 0 1.88-1.27 6.1 6.05 0 0 0 1.28-1.84 5.69 5.65 0 0 0 .46-2.26 5.69 5.65 0 0 0-.46-2.27 5.66 5.62 0 0 0-1.28-1.84 5.66 5.62 0 0 0-1.86-1.27 5.69 5.65 0 0 0-2.28-.46zm7.03 0v.57h2.77v10.5h-2.77v.55h6.18V19.5l1.1-.9a8.85 8.78 0 0 1 1.28-.8 9.1 9.1 0 0 1 1.36-.59 6.37 6.32 0 0 1 1.38-.29v10.5h-2.77v.55h6.18V19.5l1.1-.9a8.85 8.78 0 0 1 1.28-.8 9.1 9.1 0 0 1 1.36-.59 6.37 6.32 0 0 1 1.38-.29v10.5h-2.77v.56l-.03.01h8.97v-.57h-2.77v-8c0-.92-.26-1.65-.8-2.2-.52-.56-1.26-.86-2.25-.86a6.2 6.2 0 0 0-3.02.75 13.27 13.17 0 0 0-2.51 1.72c-.14-.7-.48-1.28-1.04-1.75a2.8 2.8 0 0 0-1.93-.72 6.28 6.23 0 0 0-2.97.75 13.55 13.45 0 0 0-2.51 1.66v-2.4zm33 0a5.69 5.65 0 0 0-2.28.46 6.08 6.03 0 0 0-1.85 1.27 5.8 5.8 0 0 0-1.28 1.86 5.48 5.44 0 0 0-.46 2.24 5.98 5.94 0 0 0 .44 2.32 5.88 5.84 0 0 0 1.24 1.84 5.7 5.7 0 0 0 1.86 1.24 6.18 6.13 0 0 0 2.34.44c.3 0 .6-.04.96-.1a4.19 4.15 0 0 0 1.02-.35 2.4 2.4 0 0 0 .78-.66c.22-.3.32-.63.32-1.03 0-.34-.13-.6-.38-.83a1.1 1.09 0 0 0-.84-.37 1.2 1.2 0 0 0-.87.38c-.23.24-.35.5-.35.83a1.23 1.22 0 0 0 .29.8c.18.2.4.33.7.37-.23.14-.5.22-.77.28a3.6 3.6 0 0 1-.84.1 2.7 2.7 0 0 1-1-.2 2.9 2.9 0 0 1-.8-.52c-.22-.23-.38-.47-.52-.77a2.42 2.4 0 0 1-.2-.98v-2.5H81a6.32 6.27 0 0 0-.44-2.32c-.3-.74-.7-1.4-1.22-1.95a5.9 5.9 0 0 0-1.85-1.31c-.72-.35-1.5-.52-2.37-.52zm7.02 0v.57h2.74v10.5h-2.74v.55h6.13V19.5l1.1-.9a8.85 8.78 0 0 1 1.28-.8 9.1 9.1 0 0 1 1.36-.59 5.91 5.87 0 0 1 1.36-.29v10.5h-2.74V28h8.86v-.57h-2.74v-8a2.99 2.97 0 0 0-.87-2.21c-.58-.56-1.33-.86-2.22-.86a4.3 4.3 0 0 0-1.45.24 7.96 7.9 0 0 0-1.41.54 13.71 13.61 0 0 0-1.36.77c-.43.3-.8.56-1.16.86v-2.4zm35.1.01a5.68 5.64 0 0 0-2.28.46 6.08 6.03 0 0 0-1.85 1.27 5.8 5.8 0 0 0-1.28 1.86 5.48 5.44 0 0 0-.46 2.24 5.98 5.94 0 0 0 .44 2.32 5.88 5.84 0 0 0 1.25 1.84 5.7 5.7 0 0 0 1.85 1.24 6.18 6.13 0 0 0 2.34.44c.3 0 .6-.04.96-.1a4.16 4.13 0 0 0 1.02-.35 2.59 2.57 0 0 0 .78-.66c.22-.3.32-.63.32-1.03a1.1 1.09 0 0 0-.38-.83 1.1 1.09 0 0 0-.84-.37 1.2 1.19 0 0 0-.87.38c-.23.24-.35.5-.35.83a1.23 1.22 0 0 0 .29.8c.2.2.4.33.7.37a2.89 2.87 0 0 1-.78.27 3.6 3.6 0 0 1-.84.1 2.39 2.37 0 0 1-.99-.2 2.92 2.9 0 0 1-.81-.52 3.1 3.08 0 0 1-.52-.77 2.43 2.41 0 0 1-.2-.98v-2.5h8.37a6.32 6.27 0 0 0-.44-2.32c-.3-.74-.7-1.4-1.2-1.95a5.81 5.77 0 0 0-1.85-1.31 5.4 5.4 0 0 0-2.37-.52zm-10.73.01c-1.84 0-3.3.5-4.34 1.48-1.04 1-1.54 2.45-1.54 4.33a5.68 5.64 0 0 0 .46 2.27 6.3 6.3 0 0 0 1.25 1.86 5.99 5.95 0 0 0 1.82 1.24 5.6 5.6 0 0 0 2.25.46 8.8 8.8 0 0 0 1-.06 3.45 3.42 0 0 0 1.02-.32 2.01 2 0 0 0 .75-.63c.22-.3.32-.66.32-1.12 0-.34-.13-.6-.38-.83a1.1 1.09 0 0 0-.84-.37 1.2 1.2 0 0 0-.87.38c-.23.24-.35.5-.35.83a1.23 1.22 0 0 0 .29.8 1.28 1.27 0 0 0 .73.38c-.24.14-.53.23-.82.3a3.6 3.6 0 0 1-.84.1c-.36 0-.7-.07-1-.2-.28-.12-.55-.32-.78-.52a3.05 3.03 0 0 1-.52-.77c-.1-.32-.17-.64-.17-1V19.4a2.38 2.36 0 0 1 .75-1.78 2.49 2.47 0 0 1 1.79-.71 3.73 3.7 0 0 1 .78.09 2.89 2.87 0 0 1 .81.29 1.22 1.21 0 0 0-.75.4 1.23 1.22 0 0 0-.29.8c0 .33.12.6.35.86.25.23.53.35.87.35s.6-.12.84-.35c.25-.25.38-.53.38-.86 0-.4-.12-.72-.32-1a2.16 2.15 0 0 0-.75-.69 2.69 2.67 0 0 0-.96-.35 4.43 4.39 0 0 0-.96-.12zm-71.4.54c.36 0 .66.07.96.2.3.13.58.32.78.54a2.1 2.1 0 0 1 .55.77c.13.32.2.64.2 1h-.02v5.52c0 .36-.07.7-.2 1-.12.28-.3.54-.52.77-.22.22-.5.4-.8.52a2.3 2.3 0 0 1-.96.2 2.7 2.7 0 0 1-1-.2 2.9 2.9 0 0 1-.8-.52c-.22-.23-.4-.47-.52-.77a2.42 2.4 0 0 1-.2-.98V19.4a2.39 2.37 0 0 1 .73-1.75c.5-.5 1.1-.74 1.8-.74zm-29.2.01c.36 0 .7.07 1 .2s.58.32.78.54a2.29 2.28 0 0 1 .55.77c.13.3.2.6.2.95H8.4v5.57c0 .7-.25 1.3-.75 1.78a2.39 2.37 0 0 1-1.76.71c-.8 0-1.42-.2-1.87-.63-.44-.44-.64-1.07-.64-1.86V19.4a2.39 2.37 0 0 1 .72-1.75c.5-.5 1.1-.74 1.8-.74zm69.24 0c.74 0 1.33.25 1.8.72a2.4 2.4 0 0 1 .7 1.78v2.47h-5l.03-1.27a7.6 7.6 0 0 0-.03-1.21 2.5 2.5 0 0 1 .72-1.78c.47-.48 1.06-.72 1.8-.72zm42.1.01c.74 0 1.34.25 1.8.72a2.4 2.4 0 0 1 .7 1.78v2.47h-5l.03-1.27a7.67 7.62 0 0 0-.03-1.21 2.5 2.5 0 0 1 .72-1.78c.47-.48 1.06-.72 1.8-.72z"/></symbol><symbol viewBox="0 0 20 20" id="svg-search"><path d="M8.5 0a8.5 8.5 0 1 0 0 17c1.98 0 3.8-.7 5.25-1.83l4.54 4.54a1 1 0 0 0 1.41-1.41l-4.54-4.54A8.53 8.53 0 0 0 17 8.5 8.5 8.5 0 0 0 8.5 0zm0 2a6.5 6.5 0 1 1 0 13 6.5 6.5 0 1 1 0-13z"/></symbol></svg>